<svg id="Capa_1" enable-background="new 0 0 497 497" height="512" viewBox="0 0 497 497" width="512" xmlns="http://www.w3.org/2000/svg"><g><g><path d="m198.501 302.844c3.122 1.227 6.518-1.051 6.549-4.405.131-14.553-3.515-45.097-35.182-53.923-59.772-16.66-99.625 96.402-100.568 163.793-.068 4.863 6.279 6.759 8.874 2.646 21.873-34.662 82.252-123.082 120.327-108.111z" fill="#94d4a2"/></g><g><path d="m298.499 297.844c-3.122 1.227-6.518-1.051-6.548-4.405-.131-14.553 3.515-45.097 35.182-53.923 59.772-16.66 99.625 96.402 100.568 163.793.068 4.863-6.279 6.759-8.874 2.646-21.874-34.662-82.253-123.082-120.328-108.111z" fill="#94d4a2"/></g><g><ellipse cx="247.737" cy="314.58" fill="#6dc17d" rx="66.046" ry="61.478"/></g><g><path d="m160.582 308.859c-.771.024-1.558-.07-2.338-.298-3.977-1.16-6.261-5.324-5.101-9.3l77.098-263.205c1.16-3.977 5.325-6.26 9.3-5.101 3.976 1.16 6.26 5.323 5.101 9.3l-77.098 263.205c-.932 3.197-3.805 5.299-6.962 5.399z" fill="#e3e0e4"/></g><g><path d="m332.891 308.859c.771.024 1.558-.07 2.338-.298 3.977-1.16 6.261-5.324 5.101-9.3l-77.098-263.205c-1.16-3.977-5.325-6.26-9.3-5.101-3.977 1.16-6.26 5.323-5.101 9.3l77.099 263.205c.932 3.197 3.805 5.299 6.961 5.399z" fill="#e3e0e4"/></g><g><path d="m246.737 497c-69.971 0-129.733-56.32-141.43-133.285l-3.076-20.243c-.974-6.407 3.986-12.176 10.466-12.176h135.153l2.042.975 2.308-.975h128.577c6.48 0 11.439 5.77 10.466 12.176l-3.077 20.243c-11.697 76.965-71.458 133.285-141.429 133.285z" fill="#cf9875"/></g><g><path d="m380.777 331.296h-30c6.48 0 11.439 5.77 10.466 12.176l-3.077 20.243c-10.851 71.4-63.071 125.024-126.43 132.406 4.938.575 9.941.879 15 .879 69.971 0 129.732-56.32 141.43-133.285l3.077-20.243c.974-6.406-3.985-12.176-10.466-12.176z" fill="#c7865b"/></g><g><ellipse cx="246.737" cy="22.361" fill="#b1abb4" rx="22.361" ry="22.361" transform="matrix(.166 -.986 .986 .166 183.82 261.987)"/></g><g><path d="m232.485 323.616c3.337.344 5.997-2.763 5.125-6.002-3.781-14.054-15.494-42.497-48.368-42.497-62.051 0-70.085 119.61-52.899 184.78 1.24 4.702 7.863 4.825 9.259.166 11.763-39.261 46.185-140.645 86.883-136.447z" fill="#68b76a"/></g><g><path d="m249.892 332.271s-17.778-44.749-53.793-31.42c-35.115 12.996-37.74 101.754-4.782 146.965.002.003.007.01.007.006.05-.721 8.504-121.428 58.568-115.551z" fill="#94d4a2"/></g><g><path d="m267.3 323.616c-3.337.344-5.997-2.763-5.125-6.002 3.781-14.054 15.494-42.497 48.368-42.497 62.051 0 70.085 119.61 52.899 184.78-1.24 4.702-7.863 4.825-9.259.166-11.763-39.261-46.185-140.645-86.883-136.447z" fill="#68b76a"/></g><g><path d="m249.892 332.271s17.779-44.749 53.793-31.42c35.116 12.996 37.74 101.754 4.782 146.965-.002.003-.007.01-.007.006-.049-.718-8.502-121.428-58.568-115.551z" fill="#94d4a2"/></g></g></svg>